<svg xmlns="http://www.w3.org/2000/svg" width="16" height="16" fill="currentColor" class="bi bi-person-crutch" viewBox="0 0 16 16">
  <path d="M8.25,3c.83,0,1.5-.67,1.5-1.5s-.67-1.5-1.5-1.5-1.5.67-1.5,1.5.67,1.5,1.5,1.5M6.5,15.25c.05.26.34.75.75.75s.75-.34.75-.75l-.5-4.75c0-.28.22-.5.5-.5s.5.22.5.5l-.23,3.69c0,.41.34.75.75.75s.75-.34.75-.75l.23-7.44c0-.14.04-.61.17-.68.2-.11.15.54.15.68l.13,2.2c0,.21.28.44.28.44l.98,6.06.6-.15s-.98-5.95-.91-6c.4-.28.25-.64.16-1.05-.22-1.11-.02-1.37-.01-1.88.04-2.98-.21-3.09-2.52-3.06-.61,0-2.44.32-2.44.32-1.09.2-1.6-.08-2.34,3.12-.16.67-.24,2.51-.24,2.51,0,.41.34.75.75.75s.83-.34.75-.75c-.23-1.13,0-2.5,0-2.5,0-.25.1-.41.24-.41s.44,0,.48.42c.15,1.43-.15,6.44.28,8.5Z"/>
</svg>